<?xml version="1.0" encoding="utf-8"?><svg version="1.1" id="Layer_1" xmlns="http://www.w3.org/2000/svg" xmlns:xlink="http://www.w3.org/1999/xlink" x="0px" y="0px" viewBox="0 0 70.29 122.88" style="enable-background:new 0 0 70.29 122.88" xml:space="preserve"><style type="text/css">.st0{fill-rule:evenodd;clip-rule:evenodd;} .st1{fill-rule:evenodd;clip-rule:evenodd;fill:#47C5FB;} .st2{fill-rule:evenodd;clip-rule:evenodd;fill:#00569E;} .st3{fill-rule:evenodd;clip-rule:evenodd;fill:#00B5F8;}</style><g><path class="st0" d="M13.26,0h43.76C60.67,0,64,1.49,66.4,3.88c2.4,2.4,3.89,5.73,3.89,9.38v96.36c0,3.65-1.49,6.98-3.89,9.38 c-2.39,2.39-5.73,3.88-9.38,3.88H13.26c-3.65,0-6.98-1.49-9.38-3.88C1.49,116.6,0,113.27,0,109.62V13.26 c0-3.65,1.49-6.98,3.89-9.38C6.28,1.49,9.61,0,13.26,0L13.26,0L13.26,0L13.26,0z M67.09,104.67V13.69H3.18v90.96 C25.41,104.66,44.87,104.67,67.09,104.67L67.09,104.67L67.09,104.67z"/><polygon class="st1" points="35.36,32.19 11.23,56.31 18.7,63.78 50.29,32.19 35.36,32.19"/><polygon class="st1" points="35.19,54.44 22.27,67.35 29.77,74.96 37.22,67.5 50.29,54.44 35.19,54.44"/><polygon class="st2" points="29.77,74.96 35.44,80.63 50.29,80.63 37.22,67.5 29.77,74.96"/><polygon class="st3" points="22.19,67.43 29.65,59.97 37.22,67.5 29.77,74.96 22.19,67.43"/></g></svg>